# xmcd
#
# Track frame offsets: 
#        225
#        26443
#        55242
#        81755
#        109116
#        133749
#        154029
#        185329
#        208539
#        234199
#
# Disc length: 3406 seconds
#
# Revision: 1
# Processed by: cddbd v1.5.2PL0 Copyright (c) Steve Scherf et al.
# Submitted via: ExactAudioCopy v0.95b4
#
DISCID=790d4b0a
DTITLE=Jarek Smietana - Songs And Other Ballads
DYEAR=1997
DGENRE=Jazz
TTITLE0=Medley: I Loves You Porgy/Bess You Is My Woman
TTITLE1=Stolen Moments
TTITLE2=Chelsea Bridge
TTITLE3=Girl Talk
TTITLE4=If You Love Me
TTITLE5=Flowers In Mind
TTITLE6=Dream Clock
TTITLE7=Follow The Fellow
TTITLE8=Skylark
TTITLE9=Theme From 'Rosemarys Baby'
EXTD=YEAR: 1997
EXTT0=
EXTT1=
EXTT2=
EXTT3=
EXTT4=
EXTT5=
EXTT6=
EXTT7=
EXTT8=
EXTT9=
PLAYORDER=
